<svg id="Layer_1" data-name="Layer 1" xmlns="http://www.w3.org/2000/svg" viewBox="0 0 753.37 753.02"><defs><style>.cls-1{fill:#231f20;}</style></defs><title>Woolard_Vertical-01</title><path class="cls-1" d="M.44,354.84c-.68-5-1-256.29-.43-279.68,0-.82.16-1.63.26-2.6a16.57,16.57,0,0,1,2.17-.34c1.55,0,3.1,0,4.65,0q242.58,0,485.17,0c16.08,0,32.15.27,48.17,1.6,18.85,1.56,37.49,4.37,55.61,10A153.72,153.72,0,0,1,616.87,92q37.2,17.85,52.08,56.3a174.2,174.2,0,0,1,9.41,36.34c3.11,20,4.16,40.1,4.19,60.27q.12,85.44.1,170.89a8.39,8.39,0,0,1-2.44,6.38c-44.43,46.87-89.64,93-136.88,137.05-16.49,15.39-33.18,30.57-50.5,45a685.7,685.7,0,0,1-78.55,56.5,263.92,263.92,0,0,1-40.12,20.73,98,98,0,0,1-18.49,5.87,46.87,46.87,0,0,1-16,.39c-5.11-.81-8.89-3.48-10.86-8.33a27.36,27.36,0,0,1-1.61-5.67A112,112,0,0,1,331.33,619c4.62-14.07,10.14-27.8,15.9-41.42,2.48-5.84,5.16-11.59,7.65-17.42a24,24,0,0,1,4.9-7.3c21.57-22.49,42.8-45.29,63.42-68.66q29.54-33.45,58.66-67.26,30.7-35.5,61.13-71.27c22.31-26.38,43.68-53.51,64.52-81.07,8.08-10.68,16.48-21.12,24.67-31.71a193.19,193.19,0,0,0,21.16-33.57,30.39,30.39,0,0,0,2.71-8A19.5,19.5,0,0,0,639.23,169a24.1,24.1,0,0,0-13.5,2.6,165.08,165.08,0,0,0-38.14,25.61c-28.58,26-56.06,53.16-81.14,82.64-14.45,17-27.87,34.75-41.11,52.67A1615.15,1615.15,0,0,0,369.2,477.73c-10.8,18.5-21.19,37.24-31,56.3a28,28,0,0,1-6.13,8A1141.39,1141.39,0,0,1,214.4,637c-7.28,5.1-14.45,10.34-21.62,15.58-8.31,6.08-16.82,11.85-25.68,17.09a145.07,145.07,0,0,1-33.89,15.07A73.6,73.6,0,0,1,114,687.62a25.55,25.55,0,0,1-5.45-.51c-5.88-1.17-8.83-4.3-9.49-10.27a47.32,47.32,0,0,1,.3-13.07,110,110,0,0,1,7.43-25.07C122.38,602,138.63,565.55,159,531.14c11.35-19.18,23.52-37.82,35.84-56.37q57.45-86.53,120.71-168.91a998.22,998.22,0,0,0,63.68-93.68c2.1-3.5,4.06-7.09,6-10.7q9.87-18.69,19.64-37.44a83.91,83.91,0,0,0,9.25-28.83c1.17-9.86,1.22-19.72-2.06-29.27a46.25,46.25,0,0,0-3.8-8.46A27.71,27.71,0,0,0,388,83.68a84.76,84.76,0,0,0-46.46,4.91,278.54,278.54,0,0,0-46.35,24.27A625.06,625.06,0,0,0,241,152.63c-12.49,10.12-24.83,20.41-37.27,30.59-3.71,3-7.44,6.05-11.28,8.92-15.49,11.54-30.35,23.89-45.42,36-6.49,5.2-12.91,10.49-19.48,15.58-13.84,10.71-27,22.15-40.11,33.78Q45.75,314.63,4,351.73C3,352.66,1.92,353.56.44,354.84Z" transform="translate(0.28 -1.79)"/><path class="cls-1" d="M305.22,605.17c-.42,1.53-.72,2.74-1.09,3.92a281.49,281.49,0,0,0-9.52,40.27c-2,12.76-2.24,25.56.44,38.28a50.86,50.86,0,0,0,11.3,22.87,40.37,40.37,0,0,0,24.58,13.71,91.44,91.44,0,0,0,26.12.37c17.6-2,34-7.76,49.59-15.91A329,329,0,0,0,459.13,674c10.16-8.07,20-16.55,29.57-25.28,14.28-13,28.7-25.87,43-38.86C561,583.19,589,555.19,616.12,526.25q31.65-33.84,63.26-67.68c.82-.88,1.44-2.06,2.74-2.39.2.33.44.56.44.78q0,148.05,0,296.11a7.07,7.07,0,0,1-.36,1.44c-.79.09-1.59.24-2.39.27-1.27,0-2.54,0-3.81,0H168.38a175.8,175.8,0,0,1-24.06-1.19,155.75,155.75,0,0,1-41-11.33c-31.14-13.55-55.74-34.85-74.48-63a171.68,171.68,0,0,1-27-69.61,156.93,156.93,0,0,1-1.88-24V394.49c.72-.62,1.6-1.32,2.43-2.07Q64.37,336.67,126.32,281c13.13-11.76,26.74-23,40.08-34.49,29.56-25.56,60.32-49.61,91.52-73.11,25.14-18.93,52.62-33.68,81.94-45.13a169.07,169.07,0,0,1,30-8.45c2.2-.41,4.46-.58,7-.9a13.06,13.06,0,0,1,.88,2.7,39.63,39.63,0,0,1-1,10.91,139.66,139.66,0,0,1-7.59,25.05c-1.9,4.85-4,9.63-6,14.44-.93,2.2-2,4.34-2.85,6.59-3.82,10.66-9.31,20.52-14.73,30.4a965.35,965.35,0,0,1-57.66,93c-23.76,33.62-47.63,67.16-71.23,100.88-16.49,23.56-32.6,47.39-48.9,71.08-3.35,4.88-6.72,9.75-10.19,14.55a820.52,820.52,0,0,0-56.78,90.08q-1.2,2.24-2.57,4.37A395.27,395.27,0,0,0,74,627.48a110.59,110.59,0,0,0-10.41,38.14c-.84,10.44-.46,20.85,2.23,31.06a40.68,40.68,0,0,0,4.53,10.9,26.61,26.61,0,0,0,12.94,11.06,62.8,62.8,0,0,0,26.07,4.28c11.67-.35,22.85-3.17,33.89-6.67a186.08,186.08,0,0,0,31.45-13.38c5.72-3,11.37-6.22,17-9.37a275.76,275.76,0,0,0,33.39-22.27q39.32-30.11,76.16-63.16C302.37,607.07,303.33,605.84,305.22,605.17Z" transform="translate(0.28 -1.79)"/><path class="cls-1" d="M.58,49.06C0,45.21,0,5.93.61,2.11c.71-.08,1.51-.24,2.31-.27,1.26-.05,2.53,0,3.8,0q253.14,0,506.29,0,16.51,0,33,1c10,.65,19.92,1.69,29.84,3.06A297,297,0,0,1,629.25,18a194.5,194.5,0,0,1,45.28,21.52c26.74,17.48,46.06,41.15,58.74,70.37A223.67,223.67,0,0,1,747.62,158c4,21.55,5.46,43.32,5.46,65.2q0,262.66,0,525.33c0,1.81-.08,3.63-.13,5.59a15.71,15.71,0,0,1-2.64.48q-21.15,0-42.3,0a18.36,18.36,0,0,1-2.19-.26c-.11-.86-.25-1.53-.27-2.2,0-1.69,0-3.38,0-5.08q0-257.37,0-514.75c0-11-.12-22-.85-33-1.38-20.88-4.59-41.44-11.74-61.22a126.13,126.13,0,0,0-21.89-38.83c-12.33-14.65-27.69-25.1-45.22-32.52a190.8,190.8,0,0,0-37.16-11c-9-1.79-18.06-3-27.15-4-4.76-.53-9.55-.76-14.33-1.11-21.54-1.55-43.11-1-64.68-1q-237.91-.06-475.83,0C4.74,49.52,2.75,49.85.58,49.06Z" transform="translate(0.28 -1.79)"/><path class="cls-1" d="M397.7,475.31c.91-1.55,1.8-3.11,2.74-4.64,14.89-24.3,31.17-47.64,48.16-70.5,21.87-29.43,44.41-58.31,68.34-86.1q18.36-21.33,38.17-41.3c6.64-6.71,13.13-13.59,19.79-20.28,4.38-4.39,8.94-8.6,13.45-12.85,1-.93,2.12-1.7,3.22-2.57.7,1.21-.14,1.83-.55,2.45-4.33,6.6-8.52,13.3-13.13,19.69-18.38,25.5-37,50.83-56.52,75.47q-57,72-120.41,138.44c-.87.91-1.59,2-2.38,3Z" transform="translate(0.28 -1.79)"/></svg>