<?xml version="1.0" encoding="utf-8"?>
<!-- Generator: Adobe Illustrator 22.1.0, SVG Export Plug-In . SVG Version: 6.00 Build 0)  -->
<svg version="1.1" id="Layer_1" xmlns="http://www.w3.org/2000/svg" xmlns:xlink="http://www.w3.org/1999/xlink" x="0px" y="0px"
	 viewBox="0 0 115.4 115.4" style="enable-background:new 0 0 115.4 115.4;" xml:space="preserve">
<style type="text/css">
	.st0{fill:#AD1F24;}
	.st1{fill:none;stroke:#E45A27;stroke-width:7.3773;stroke-miterlimit:10;}
	.st2{clip-path:url(#SVGID_2_);}
	.st3{fill:#FFFFFF;}
</style>
<g id="New_Symbol">
	<path class="st0" d="M76.7,10.9H0v78.5c0,13.6,11.2,26,25.1,26h79.4V38.8C104.5,20.8,101.4,10.9,76.7,10.9z"/>
	<path class="st1" d="M111.7,115.4V34c0-18.8-7.1-30.3-33.6-30.3H0"/>
	<g>
		<g>
			<defs>
				<path id="SVGID_1_" d="M76.7,10.9H0v78.5c0,13.6,11.2,26,25.1,26h79.4V38.8C104.5,23.4,96.8,10.9,76.7,10.9z"/>
			</defs>
			<clipPath id="SVGID_2_">
				<use xlink:href="#SVGID_1_"  style="overflow:visible;"/>
			</clipPath>
			<g class="st2">
				<path class="st3" d="M-78.4,124.5c3.3-2.9,92.2-82.8,95.5-85.4c3.3-2.6,6.7-5.3,10.1-8.1c2-1.5,4-3.1,6-4.8c2-1.7,4.1-3.4,6.2-5
					s4.3-3.1,6.4-4.5c2.2-1.4,4.5-2.5,6.9-3.5c2-0.7,4.2-1,6.4-0.6c2.3,0.3,3.7,1.8,4.2,4.4c0.4,2.6,0,5.3-1.4,7.9
					c-1.3,2.6-2.6,4.9-3.7,7.1c-3.2,5.3-6.6,10.3-10.3,15.2c-3.7,4.8-7.3,9.7-10.8,14.7C33.5,67,30,72.1,26.7,77.3
					s-6.2,10.6-8.6,16.3c-0.2,0.5-0.6,1.4-1.2,2.7s-1.1,2.6-1.4,3.9c-0.4,1.3-0.5,2.5-0.3,3.5s0.9,1.5,2.1,1.5
					c1.4,0,2.8-0.3,4.2-0.8c1.4-0.5,2.8-1.2,4.1-2c1.3-0.8,2.6-1.6,3.8-2.5c1.2-0.9,2.4-1.7,3.4-2.5c6.3-4.4,12.5-9.5,18.6-15.1
					c1.9-3.7,3.9-7.3,6-10.9c2.1-3.5,4.3-7.1,6.7-10.6c3.1-4.5,6.3-9,9.6-13.4s7-8.5,11-12.5c1.6-1.6,3.3-3.2,5-4.8
					c1.7-1.6,3.7-2.9,5.8-4c0.7-0.4,1.5-0.6,2.1-0.6c0.7,0.1,1.3,0.3,1.7,0.7c0.5,0.4,0.8,1,1,1.6s0.1,1.3-0.2,2.1
					c-0.8,1.8-2,3.6-3.4,5.5s-2.6,3.3-3.4,4.4c-3.5,4.7-7.2,9.4-11.3,14.1c-4.4,5.2-8.9,10.4-13.4,15.5c-4.5,5.2-9.2,10.3-14,15.4
					c-1.4,3-2.6,5.9-3.6,8.9c-1.1,3-1.4,5.8-1,8.6c0.1,1.6,0.7,2.5,1.9,2.7c1.2,0.2,2.5,0.1,3.9-0.4s2.9-1.1,4.3-1.8
					s2.5-1.3,3.1-1.7c5.2-3.2,10-6.8,14.6-10.8c4.5-4,8.9-8.1,13.2-12.4c9.1-9,17.8-18.3,26.2-27.8c8.4-9.6,60.2-68.9,67.9-78.9
					c1.5-2,3-4,4.4-6c1.5-2,3-3.9,4.4-5.9c0.3-0.4,0.7-0.9,1.1-1.5c0.4-0.6,0.9-1.1,1.4-1.6s1.1-0.8,1.7-0.9c0.6-0.1,1.2,0.1,2,0.5
					c1,0.7,1.3,1.6,1,2.7c-0.3,1.1-0.9,2.1-1.8,3.3c-0.9,1.1-1.9,2.1-2.9,3.1s-1.7,1.6-2.1,2.1c-7.8,8.9-59.3,67.3-66.8,76.2
					S112.3,61,104.3,69.8c-3.8,4.1-7.7,8.3-11.7,12.5s-8.1,8.2-12.3,12c-1.8,1.6-3.7,3.3-5.7,5.2c-2,1.8-4.1,3.6-6.3,5.2
					c-2.2,1.6-4.5,3-6.9,4.2s-4.8,1.8-7.4,2.1c-2.9,0.2-5-0.3-6.3-1.5c-1.4-1.2-2.2-2.8-2.5-4.7s-0.3-4,0.2-6.2
					c0.4-2.2,1-4.3,1.6-6.2c-2.3,2.1-4.7,4.1-7.1,6.1s-4.8,3.8-7.2,5.6c-1.4,1-3.3,2.1-5.8,3.4c-2.5,1.3-5,2.2-7.5,2.8
					c-2.5,0.5-4.7,0.4-6.6-0.4c-1.9-0.8-2.8-2.8-2.9-6.1c-0.1-2.6,0.4-5.3,1.7-7.9c1.2-2.6,2.5-4.9,3.9-7.1c1.5-2.8,3-5.4,4.6-7.9
					s3.3-4.9,5.1-7.4c3.4-5.1,6.8-10,10.2-14.8c3.4-4.8,6.8-9.7,10.2-14.5c3.3-4.9,6.3-9.9,9-15.2c0.3-0.8,0.7-1.8,1.2-2.9
					s0.9-2.1,1.3-3.2s0.6-2,0.8-2.9c0.2-0.8,0.2-1.5,0.1-2.1c-1,0.1-1.7,0.2-2.4,0.4c-0.6,0.2-1.2,0.3-1.8,0.5
					c-0.6,0.2-0.9,0.3-1,0.4c-4.9,1.8-9.4,4.3-13.6,7.5s-8.1,6.3-11.8,9.4c-2.4,2.1-4.9,4.2-7.3,6.3c-2.4,2.1-90.3,81.5-92.4,83.9
					c-0.7,0.9-1.6,1.8-2.5,2.8c-1,1-2.1,1-3.3-0.1c-0.6-0.5-1-1.3-1-2.2C-79.4,125.8-79.1,125.1-78.4,124.5z M84.8,44.7
					c1.1-1.5,2.1-2.9,3.2-4.4c1.1-1.4,2.1-2.9,3-4.5c-1.1,0.8-2.1,1.8-3,2.8c-1,1-1.9,1.9-2.7,2.8c-2.1,2.1-4.2,4.3-6.1,6.6
					c-2,2.3-3.9,4.6-5.8,7.1c-2.3,3-4.6,6-6.7,9c-2.2,3-4.2,6.1-6.1,9.3C69.2,64.3,77.3,54.7,84.8,44.7z"/>
			</g>
		</g>
	</g>
</g>
</svg>
